<?xml version="1.0"?>
<svg xmlns="http://www.w3.org/2000/svg" xmlns:xlink="http://www.w3.org/1999/xlink" version="1.1" id="Capa_1" x="0px" y="0px" viewBox="0 0 59.982 59.982" style="enable-background:new 0 0 59.982 59.982;" xml:space="preserve" width="512px" height="512px" class=""><g><path style="fill:#C92248" d="M29.991,0.982c0,0-6.667,8-22,8v19.085c0,9.966,4.328,19.577,12.164,25.735  c2.773,2.18,6.044,4.055,9.836,5.18c3.792-1.125,7.062-3,9.836-5.18c7.836-6.158,12.164-15.769,12.164-25.735V8.982  C36.658,8.982,29.991,0.982,29.991,0.982z" data-original="#26B99A" class="" data-old_color="#F60138"/><path style="fill:#C92248" d="M7.991,8.982v19.085c0,9.966,4.328,19.577,12.164,25.735c2.773,2.18,6.044,4.055,9.836,5.18v-58  C29.991,0.982,23.324,8.982,7.991,8.982z" data-original="#14A085" class="" data-old_color="#FC00FF"/><path style="fill:#2fill:#556080fill:#2fill:#556080fill:#2fill:#556080fill:#2fill:#556080fill:#2fill:#556080fill:#2fill:#556080fill:#2fill:#556080fill:#2fill:#556080fill:#2fill:#556080fill:#2fill:#556080fill:#2fill:#556080fill:#2fill:#556080fill:#556080fill:#556080fill:#556080fill:#556080fill:#556080fill:#556080fill:#556080fill:#556080fill:#556080fill:#556080fill:#556080fill:#556080fill:#556080fill:#556080fill:#556080fill:#556080fill:#556080fill:#556080fill:#556080fill:#556080fill:#556080fill:#556080fill:#556080fill:#556080fill:#556080fill:#556080fill:#556080fill:#556080fill:#556080fill:#556080fill:#556080fill:#556080fill:#000000fill:#000000fill:#000000fill:#556080fill:#556080fill:#556080fill:#556080fill:#556080fill:#556080fill:#556080fill:#556080fill:#556080fill:#556080fill:#556080fill:#556080fill:#556080fill:#556080fill:#556080fill:#556080fill:#556080fill:#556080fill:#556080fill:#556080fill:#556080fill:#556080fill:#556080fill:#556080fill:#556080fill:#556080fill:#556080fill:#556080" d="M29.991,59.982c-0.096,0-0.191-0.014-0.284-0.041c-3.581-1.063-7.003-2.863-10.17-5.353  C11.681,48.415,6.991,38.5,6.991,28.067V8.982c0-0.553,0.447-1,1-1c14.694,0,21.168-7.563,21.231-7.641  c0.381-0.455,1.156-0.455,1.537,0c0.063,0.075,6.604,7.641,21.231,7.641c0.553,0,1,0.447,1,1v19.085  c0,10.433-4.69,20.348-12.546,26.521c-3.167,2.489-6.589,4.29-10.17,5.353C30.182,59.968,30.087,59.982,29.991,59.982z M8.991,9.971  v18.096c0,9.824,4.404,19.151,11.782,24.949c2.883,2.266,5.982,3.921,9.218,4.921c3.235-1,6.335-2.655,9.218-4.921  c7.378-5.798,11.782-15.125,11.782-24.949V9.971c-12.242-0.272-18.865-5.497-21-7.546C27.856,4.474,21.233,9.699,8.991,9.971z" data-original="#556080" class="active-path" data-old_color="#2fill:#556080fill:#2fill:#556080fill:#2fill:#556080fill:#2fill:#556080fill:#2fill:#556080fill:#2fill:#556080fill:#2fill:#556080fill:#2fill:#556080fill:#2fill:#556080fill:#2fill:#556080fill:#2fill:#556080fill:#2fill:#556080fill:#556080fill:#556080fill:#556080fill:#556080fill:#556080fill:#556080fill:#556080fill:#556080fill:#556080fill:#556080fill:#556080fill:#556080fill:#556080fill:#556080fill:#556080fill:#556080fill:#556080fill:#556080fill:#556080fill:#556080fill:#556080fill:#556080fill:#556080fill:#556080fill:#556080fill:#556080fill:#556080fill:#556080fill:#556080fill:#556080fill:#556080fill:#556080fill:#000000fill:#000000fill:#000000fill:#556080fill:#556080fill:#556080fill:#556080fill:#556080fill:#556080fill:#556080fill:#556080fill:#556080fill:#556080fill:#556080fill:#556080fill:#556080fill:#556080fill:#556080fill:#556080fill:#556080fill:#556080fill:#556080fill:#556080fill:#556080fill:#556080fill:#556080fill:#556080fill:#556080fill:#556080fill:#556080"/></g> </svg>
