<?xml version="1.0"?>
<svg xmlns="http://www.w3.org/2000/svg" xmlns:xlink="http://www.w3.org/1999/xlink" version="1.1" id="Capa_1" x="0px" y="0px" viewBox="0 0 453.511 453.511" style="enable-background:new 0 0 453.511 453.511;" xml:space="preserve" width="512px" height="512px" class=""><g><g>
	<g id="Layer_1_6_">
		<g>
			<path d="M186.838,156.641c22.02-0.693,39.313-19.106,38.623-41.131c-0.695-22.022-19.107-39.315-41.129-38.625     c-22.025,0.691-39.318,19.106-38.625,41.128C146.397,140.039,164.811,157.332,186.838,156.641z" data-original="#000000" class="active-path" data-old_color="#EA475C" fill="#EA485C"/>
			<path d="M452.912,48.215c-1.059-1.536-3.166-1.922-4.701-0.862l-137.58,94.942c0,0-17.318-20.121-27.365-13.087     c-1.348,0.943-1.656,2.817-0.703,4.165l11.215,15.803l-5.406,3.837c-3.418-0.315-7.285,0.698-11.377,2.696l-50.568,25.347     c0,0-34.381-9.579-63.227-23.52c-19.174-9.266-33.75-16.234-58.836-16.006l-22.742,0.035c-2.313,0.182-4.607,0.984-6.623,2.444     l-45.27,29.635c-5.463,3.954-7.408,11.399-4.271,17.613c3.48,6.89,11.885,9.652,18.773,6.175l43.385-21.905l23.723,2.36     c-0.729,1.111-1.463,2.233-2.193,3.376c-15.398,23.986-25.891,46.181-31.369,66.28c-0.398,0.554-0.785,1.122-1.148,1.713     L2.459,370.565c-4.316,7.041-2.871,16.364,3.707,21.726c7.174,5.846,17.727,4.77,23.572-2.403l78.084-95.803l26.73,33.517     l-15.045,58.185c-2.037,7.846,1.871,16.231,9.539,19.57c8.492,3.698,18.373-0.188,22.068-8.679l29.184-67.01     c2.348-5.499,2.129-12.118-1.236-17.6l-1.617-2.632l-24.061-39.167c3.879-16.687,16.9-39.431,30.049-58.175l39.545,9.593     l1.662,0.404c4.762,1.136,9.965,0.348,14.334-2.61l53.361-39.214c4.43-3.72,7.463-7.265,7.805-11.737l4.904-3.48l11.219,15.804     c0.955,1.346,2.805,1.642,4.162,0.706c9.449-6.509-3.326-30.148-3.326-30.148L452.12,52.869     C453.596,51.79,453.959,49.727,452.912,48.215z" data-original="#000000" class="active-path" data-old_color="#EA475C" fill="#EA485C"/>
		</g>
	</g>
</g></g> </svg>
