<?xml version="1.0"?>
<svg xmlns="http://www.w3.org/2000/svg" xmlns:xlink="http://www.w3.org/1999/xlink" version="1.1" id="Layer_1" x="0px" y="0px" viewBox="0 0 511.999 511.999" style="enable-background:new 0 0 511.999 511.999;" xml:space="preserve" width="512px" height="512px" class=""><g><path style="fill:#D6D6D6;" d="M369.718,355.167l-29.104,29.104L41.337,84.992C28.844,72.51,20.738,56.363,18.14,38.998  c-0.259-1.671-0.452-3.342-0.604-5.033l-0.022-0.248L14.551,0L369.718,355.167z" data-original="#D6D6D6" class=""/><path style="fill:#F75534;" d="M497.448,491.424c0,5.26-2.005,10.532-6.026,14.551c-0.054,0.054-0.097,0.097-0.14,0.14  c-8.052,7.89-20.976,7.847-28.964-0.14L355.35,399.005l-5.217-5.217l13.754-13.754l15.35-15.35l5.217,5.217l25.772,25.772  l11.631,11.631l18.422,18.422l11.619,11.619l18.422,18.422l11.631,11.631l9.475,9.474  C495.443,480.893,497.448,486.153,497.448,491.424z" data-original="#F75534" class=""/><path style="fill:#BD391E;" d="M497.146,491.736c0,5.13-1.908,10.272-5.724,14.239c-0.054,0.054-0.097,0.097-0.14,0.14  c-8.052,7.89-20.976,7.847-28.964-0.14L355.35,399.005l-5.217-5.217l13.754-13.754L467.623,483.77  c8.042,8.042,20.146,8.958,28.187,0.927c0.022-0.032,0.054-0.065,0.075-0.087C496.726,486.908,497.146,489.323,497.146,491.736z" data-original="#BD391E" class=""/><path style="fill:#B3B3B3;" d="M354.346,370.538l-13.732,13.733L41.337,84.992C28.844,72.51,20.738,56.363,18.14,38.998  c-0.259-1.671-0.452-3.342-0.604-5.033l-0.022-0.248L354.346,370.538z" data-original="#B3B3B3" class=""/><path style="fill:#362928;" d="M410.351,343.998l-80.905,80.905c-1.683,1.683-4.414,1.683-6.098,0l-13.672-13.672  c-1.683-1.683-1.683-4.414,0-6.098l80.905-80.905c1.683-1.683,4.414-1.683,6.098,0l13.672,13.672  C412.034,339.585,412.034,342.314,410.351,343.998z" data-original="#362928" class=""/><path style="fill:#D6D6D6;" d="M497.448,0l-2.34,26.592l-0.312,3.546l-0.334,3.826c-0.15,1.649-0.345,3.287-0.592,4.926  c-2.576,17.408-10.692,33.598-23.207,46.102L170.576,385.078l-29.104-29.104L497.448,0z" data-original="#D6D6D6" class=""/><polygon style="fill:#B3B3B3;" points="497.448,0 495.11,26.592 494.796,30.138 155.216,369.718 141.474,355.976 " data-original="#B3B3B3" class=""/><path style="fill:#F75534;" d="M161.867,393.789l-5.217,5.217L49.679,505.975c-5.712,5.712-13.948,7.351-21.127,4.926  c-1.089-0.367-2.156-0.83-3.19-1.379c-0.345-0.183-0.69-0.377-1.024-0.582c-0.334-0.205-0.657-0.42-0.992-0.647  c-0.302-0.216-0.614-0.442-0.916-0.679l-0.075-0.054c-0.205-0.172-0.42-0.345-0.625-0.528l-1.154-1.056  c-8.03-8.042-8.03-21.072,0-29.104l9.475-9.474l11.631-11.631l18.422-18.422l11.619-11.619l18.422-18.422l11.631-11.631  l25.772-25.772l5.217-5.217L161.867,393.789z" data-original="#F75534" class=""/><path style="fill:#BD391E;" d="M146.507,378.429l-5.217,5.217l-22.076,22.076l-11.836,11.836l-18.217,18.217l-11.836,11.836  l-18.205,18.205L47.285,477.65l-13.409,13.409c-5.379,5.379-7.146,12.989-5.325,19.844c-1.089-0.367-2.156-0.83-3.19-1.379  c-0.345-0.183-0.69-0.377-1.024-0.582c-0.334-0.205-0.657-0.42-0.992-0.647c-0.302-0.216-0.614-0.442-0.916-0.679l-0.075-0.054  c-0.205-0.172-0.42-0.345-0.625-0.528l-1.154-1.056c-8.03-8.042-8.03-21.072,0-29.104l9.475-9.474l11.631-11.631l18.422-18.422  l11.619-11.619l18.422-18.422l11.631-11.631l25.772-25.772l5.217-5.217L146.507,378.429z" data-original="#BD391E" class=""/><path style="fill:#362928;" d="M101.648,343.998l80.905,80.905c1.683,1.683,4.414,1.683,6.097,0l13.672-13.672  c1.683-1.683,1.683-4.414,0-6.098l-80.905-80.905c-1.683-1.683-4.414-1.683-6.098,0L101.647,337.9  C99.965,339.585,99.965,342.314,101.648,343.998z" data-original="#362928" class=""/><g>
	<path style="fill:#FF4700" d="M421.855,407.305c-0.496,0.495-1.056,0.927-1.681,1.294l-17.591,10.132l-17.451,10.057   l-11.631-11.631c0.485-0.485,1.046-0.916,1.681-1.283l15.565-8.979l19.478-11.221L421.855,407.305z" data-original="#752313" class="active-path" data-old_color="#FF4F00"/>
	<path style="fill:#FF4700" d="M451.897,437.346c-0.485,0.495-1.046,0.927-1.671,1.294l-17.591,10.143l-17.451,10.056   l-11.631-11.631c0.485-0.496,1.046-0.927,1.671-1.294l15.575-8.968l19.478-11.221L451.897,437.346z" data-original="#752313" class="active-path" data-old_color="#FF4F00"/>
	<path style="fill:#FF4700" d="M481.948,467.397c-0.496,0.495-1.056,0.927-1.681,1.294l-17.591,10.132l-17.451,10.057   l-11.631-11.631c0.495-0.485,1.056-0.927,1.681-1.283l15.565-8.979l19.478-11.221L481.948,467.397z" data-original="#752313" class="active-path" data-old_color="#FF4F00"/>
	<path style="fill:#FF4700" d="M138.498,417.157l-11.631,11.631l-19.488-11.232l-15.554-8.957   c-0.625-0.367-1.186-0.797-1.681-1.294l11.631-11.631l17.44,10.046l17.602,10.154C137.453,416.24,138.013,416.672,138.498,417.157z   " data-original="#752313" class="active-path" data-old_color="#FF4F00"/>
	<path style="fill:#FF4700" d="M108.446,447.209L96.816,458.84l-19.488-11.232l-15.554-8.968c-0.625-0.367-1.186-0.797-1.671-1.294   l11.619-11.619l17.44,10.046l17.613,10.143C107.401,446.282,107.962,446.713,108.446,447.209z" data-original="#752313" class="active-path" data-old_color="#FF4F00"/>
	<path style="fill:#FF4700" d="M78.406,477.25l-11.631,11.631l-19.488-11.232l-15.554-8.957c-0.625-0.367-1.186-0.797-1.681-1.294   l11.631-11.631l17.44,10.046l17.602,10.154C77.349,476.323,77.909,476.765,78.406,477.25z" data-original="#752313" class="active-path" data-old_color="#FF4F00"/>
</g></g> </svg>
